<svg id="Layer_1" data-name="Layer 1" xmlns="http://www.w3.org/2000/svg" width="25.13mm" height="3.61mm" viewBox="0 0 71.24 10.23"><defs><style>.cls-1{fill:#fff;}</style></defs><title>portfolio</title><path class="cls-1" d="M2.47,10.81v3.9H1.16v-10H4.83a3.67,3.67,0,0,1,2.56.84,2.83,2.83,0,0,1,.92,2.2A2.82,2.82,0,0,1,7.41,10a3.88,3.88,0,0,1-2.6.78Zm0-1.07H4.83a2.35,2.35,0,0,0,1.61-.5A1.83,1.83,0,0,0,7,7.8a1.89,1.89,0,0,0-.56-1.42A2.17,2.17,0,0,0,4.9,5.83H2.47Z" transform="translate(-1.16 -4.62)"/><path class="cls-1" d="M17.64,10.05a6.08,6.08,0,0,1-.49,2.55,3.72,3.72,0,0,1-1.39,1.67,3.88,3.88,0,0,1-2.11.57,3.74,3.74,0,0,1-2.08-.58,3.81,3.81,0,0,1-1.42-1.64,6,6,0,0,1-.51-2.48V9.42a6.08,6.08,0,0,1,.5-2.53,3.67,3.67,0,0,1,3.5-2.27,3.9,3.9,0,0,1,2.11.57,3.76,3.76,0,0,1,1.4,1.68,6.14,6.14,0,0,1,.49,2.55Zm-1.3-.64a4.5,4.5,0,0,0-.71-2.72,2.36,2.36,0,0,0-2-1,2.33,2.33,0,0,0-2,1,4.39,4.39,0,0,0-.74,2.63v.73a4.44,4.44,0,0,0,.73,2.7,2.33,2.33,0,0,0,2,1,2.31,2.31,0,0,0,2-.93,4.44,4.44,0,0,0,.72-2.65Z" transform="translate(-1.16 -4.62)"/><path class="cls-1" d="M23.26,10.68H20.92v4H19.61v-10H22.9a3.92,3.92,0,0,1,2.59.77,2.76,2.76,0,0,1,.9,2.23,2.64,2.64,0,0,1-.5,1.62,3,3,0,0,1-1.4,1l2.34,4.22v.09H25.42ZM20.92,9.61h2A2.29,2.29,0,0,0,24.5,9.1a1.73,1.73,0,0,0,.57-1.36,1.77,1.77,0,0,0-.55-1.41,2.28,2.28,0,0,0-1.59-.5h-2Z" transform="translate(-1.16 -4.62)"/><path class="cls-1" d="M34.56,5.83h-3.2v8.88h-1.3V5.83H26.87V4.75h7.69Z" transform="translate(-1.16 -4.62)"/><path class="cls-1" d="M41.53,10.31H37.35v4.4H36v-10h6.17V5.83H37.35V9.24h4.18Z" transform="translate(-1.16 -4.62)"/><path class="cls-1" d="M51.43,10.05a6.08,6.08,0,0,1-.49,2.55,3.72,3.72,0,0,1-1.39,1.67,3.88,3.88,0,0,1-2.11.57,3.74,3.74,0,0,1-2.08-.58,3.81,3.81,0,0,1-1.42-1.64,6,6,0,0,1-.51-2.48V9.42a6.08,6.08,0,0,1,.5-2.53,3.67,3.67,0,0,1,3.5-2.27,3.9,3.9,0,0,1,2.11.57,3.76,3.76,0,0,1,1.4,1.68,6.14,6.14,0,0,1,.49,2.55Zm-1.3-.64a4.5,4.5,0,0,0-.71-2.72,2.36,2.36,0,0,0-2-1,2.33,2.33,0,0,0-2,1,4.39,4.39,0,0,0-.74,2.63v.73a4.44,4.44,0,0,0,.73,2.7,2.52,2.52,0,0,0,3.95.05,4.44,4.44,0,0,0,.72-2.65Z" transform="translate(-1.16 -4.62)"/><path class="cls-1" d="M54.72,13.63h4.72v1.08h-6v-10h1.32Z" transform="translate(-1.16 -4.62)"/><path class="cls-1" d="M62.34,14.71H61v-10h1.31Z" transform="translate(-1.16 -4.62)"/><path class="cls-1" d="M72.4,10.05a6.08,6.08,0,0,1-.49,2.55,3.74,3.74,0,0,1-1.4,1.67,3.84,3.84,0,0,1-2.1.57,3.78,3.78,0,0,1-2.09-.58,3.86,3.86,0,0,1-1.41-1.64,6,6,0,0,1-.52-2.48V9.42a6.08,6.08,0,0,1,.5-2.53A3.84,3.84,0,0,1,66.31,5.2a3.74,3.74,0,0,1,2.08-.58,3.9,3.9,0,0,1,2.11.57,3.78,3.78,0,0,1,1.41,1.68,6.14,6.14,0,0,1,.49,2.55Zm-1.31-.64a4.43,4.43,0,0,0-.71-2.72,2.34,2.34,0,0,0-2-1,2.3,2.3,0,0,0-2,1,4.33,4.33,0,0,0-.74,2.63v.73a4.51,4.51,0,0,0,.72,2.7,2.53,2.53,0,0,0,4,.05,4.45,4.45,0,0,0,.71-2.65Z" transform="translate(-1.16 -4.62)"/></svg>
